<?xml version="1.0" encoding="UTF-8"?>
<svg width="1200pt" height="1200pt" version="1.1" viewBox="0 0 1200 1200" xmlns="http://www.w3.org/2000/svg">
 <defs>
  <clipPath id="c">
   <path d="m244 222.14h733.86v733.86h-733.86z"/>
  </clipPath>
  <clipPath id="b">
   <path d="m369 822h156v155.86h-156z"/>
  </clipPath>
  <clipPath id="a">
   <path d="m222.14 675h155.86v156h-155.86z"/>
  </clipPath>
 </defs>
 <g clip-path="url(#c)">
  <path d="m588.66 822.94c18.895-7.5586 37.785-18.895 52.898-30.23 15.113 56.68 11.336 113.36-7.5586 162.48 109.58-41.562 166.26-151.14 143.59-272.06 117.14-117.13 196.49-279.61 200.27-442.09 0-11.336-7.5586-18.895-18.895-18.895-162.48 3.7773-324.96 83.129-442.09 196.48-117.14-18.895-230.49 34.008-272.06 143.59 49.121-18.895 105.8-22.672 162.48-7.5586-11.336 18.895-22.672 37.785-30.23 56.68-3.7773 7.5586-3.7773 15.113 3.7773 22.672l188.93 188.93c3.7812 3.7773 11.34 3.7773 18.898 0zm71.793-389.19c30.23-30.23 75.57-30.23 105.8 0 30.23 30.23 30.23 75.57 0 105.8-30.23 30.23-75.57 30.23-105.8 0s-30.23-75.574 0-105.8z" fill="#fff"/>
 </g>
 <g clip-path="url(#b)">
  <path d="m433.74 966.52 79.352-79.352c15.113-15.113 15.113-37.785 0-52.898-15.113-15.113-37.785-15.113-52.898 0l-79.352 79.352c-15.113 15.113-15.113 37.785 0 52.898 15.113 15.113 37.781 15.113 52.898 0z" fill="#fff"/>
 </g>
 <g clip-path="url(#a)">
  <path d="m365.73 739.81c15.113-15.113 15.113-37.785 0-52.898-15.113-15.113-37.785-15.113-52.898 0l-79.352 79.352c-15.113 15.113-15.113 37.785 0 52.898 15.113 15.113 37.785 15.113 52.898 0z" fill="#fff"/>
 </g>
 <path d="m437.52 811.6c15.113-15.113 15.113-37.785 0-52.898s-37.785-15.113-52.898 0l-109.58 109.58c-15.113 15.113-15.113 37.785 0 52.898 15.113 15.113 37.785 15.113 52.898 0z" fill="#fff"/>
</svg>
